<svg class="animated" id="freepik_stories-wireframing" xmlns="http://www.w3.org/2000/svg" viewBox="0 0 500 500" version="1.1" xmlns:xlink="http://www.w3.org/1999/xlink" xmlns:svgjs="http://svgjs.com/svgjs"><style>svg#freepik_stories-wireframing:not(.animated) .animable {opacity: 0;}svg#freepik_stories-wireframing.animated #freepik--Character--inject-5 {animation: 1.5s Infinite  linear floating;animation-delay: 0s;}            @keyframes floating {                0% {                    opacity: 1;                    transform: translateY(0px);                }                50% {                    transform: translateY(-10px);                }                100% {                    opacity: 1;                    transform: translateY(0px);                }            }        .animator-hidden { display: none; }</style><g id="freepik--background-complete--inject-5" class="animable animator-hidden" style="transform-origin: 251.57px 192.47px;"><polygon points="108.12 285.5 106.91 285.5 106.91 284.7 107.31 284.7 107.31 284.3 108.12 284.3 108.12 285.5" style="fill: rgb(235, 235, 235); transform-origin: 107.515px 284.9px;" id="eltntl4j84lsj" class="animable"></polygon><path d="M105.31,285.5h-1.6v-.8h1.6Zm-3.2,0h-1.6v-.8h1.6Zm-3.21,0H97.3v-.8h1.6Zm-3.2,0H94.1v-.8h1.6Zm-3.2,0H90.89v-.8H92.5Zm-3.21,0h-1.6v-.8h1.6Zm-3.2,0h-1.6v-.8h1.6Zm-3.21,0h-1.6v-.8h1.6Zm-3.2,0h-1.6v-.8h1.6Zm-3.2,0H74.87v-.8h1.61Zm-3.21,0h-1.6v-.8h1.6Zm-3.2,0h-1.6v-.8h1.6Zm-3.21,0h-1.6v-.8h1.6Zm-3.2,0h-1.6v-.8h1.6Zm-3.2,0H58.85v-.8h1.61Zm-3.21,0h-1.6v-.8h1.6Zm-3.2,0h-1.6v-.8h1.6Z" style="fill: rgb(235, 235, 235); transform-origin: 78.88px 285.1px;" id="elos0qoniouh" class="animable"></path><polygon points="50.84 285.5 49.64 285.5 49.64 284.3 50.44 284.3 50.44 284.7 50.84 284.7 50.84 285.5" style="fill: rgb(235, 235, 235); transform-origin: 50.24px 284.9px;" id="elngw6yj5ys8k" class="animable"></polygon><path d="M50.44,282.7h-.8v-1.6h.8Zm0-3.21h-.8v-1.6h.8Zm0-3.2h-.8v-1.6h.8Zm0-3.2h-.8v-1.61h.8Zm0-3.21h-.8v-1.6h.8Zm0-3.2h-.8v-1.6h.8Zm0-3.21h-.8v-1.6h.8Zm0-3.2h-.8v-1.6h.8Zm0-3.2h-.8v-1.61h.8Zm0-3.21h-.8v-1.6h.8Zm0-3.2h-.8v-1.6h.8Zm0-3.21h-.8v-1.6h.8Zm0-3.2h-.8v-1.6h.8Zm0-3.2h-.8v-1.61h.8Zm0-3.21h-.8v-1.6h.8Zm0-3.2h-.8V233h.8Zm0-3.21h-.8v-1.6h.8Z" style="fill: rgb(235, 235, 235); transform-origin: 50.04px 256.265px;" id="elrprd0pfnib9" class="animable"></path><polygon points="50.44 228.23 49.64 228.23 49.64 227.03 50.84 227.03 50.84 227.83 50.44 227.83 50.44 228.23" style="fill: rgb(235, 235, 235); transform-origin: 50.24px 227.63px;" id="elvyyx3tev1t" class="animable"></polygon><path d="M105.31,227.83h-1.6V227h1.6Zm-3.2,0h-1.6V227h1.6Zm-3.21,0H97.3V227h1.6Zm-3.2,0H94.1V227h1.6Zm-3.2,0H90.89V227H92.5Zm-3.21,0h-1.6V227h1.6Zm-3.2,0h-1.6V227h1.6Zm-3.21,0h-1.6V227h1.6Zm-3.2,0h-1.6V227h1.6Zm-3.2,0H74.87V227h1.61Zm-3.21,0h-1.6V227h1.6Zm-3.2,0h-1.6V227h1.6Zm-3.21,0h-1.6V227h1.6Zm-3.2,0h-1.6V227h1.6Zm-3.2,0H58.85V227h1.61Zm-3.21,0h-1.6V227h1.6Zm-3.2,0h-1.6V227h1.6Z" style="fill: rgb(235, 235, 235); transform-origin: 78.88px 227.415px;" id="elxxg2e2dhsq" class="animable"></path><polygon points="108.12 228.23 107.31 228.23 107.31 227.83 106.91 227.83 106.91 227.03 108.12 227.03 108.12 228.23" style="fill: rgb(235, 235, 235); transform-origin: 107.515px 227.63px;" id="elmq38kcyh6m" class="animable"></polygon><path d="M108.12,282.7h-.81v-1.6h.81Zm0-3.21h-.81v-1.6h.81Zm0-3.2h-.81v-1.6h.81Zm0-3.2h-.81v-1.61h.81Zm0-3.21h-.81v-1.6h.81Zm0-3.2h-.81v-1.6h.81Zm0-3.21h-.81v-1.6h.81Zm0-3.2h-.81v-1.6h.81Zm0-3.2h-.81v-1.61h.81Zm0-3.21h-.81v-1.6h.81Zm0-3.2h-.81v-1.6h.81Zm0-3.21h-.81v-1.6h.81Zm0-3.2h-.81v-1.6h.81Zm0-3.2h-.81v-1.61h.81Zm0-3.21h-.81v-1.6h.81Zm0-3.2h-.81V233h.81Zm0-3.2h-.81v-1.61h.81Z" style="fill: rgb(235, 235, 235); transform-origin: 107.715px 256.265px;" id="elyf0k8dm532" class="animable"></path><rect x="46.45" y="281.51" width="7.19" height="7.19" style="fill: rgb(255, 255, 255); transform-origin: 50.045px 285.105px;" id="el36dxutdbpa" class="animable"></rect><path d="M54,289.09h-8v-8h8Zm-7.19-.8h6.39v-6.38H46.85Z" style="fill: rgb(235, 235, 235); transform-origin: 50px 285.09px;" id="eldno7zt2wj2q" class="animable"></path><rect x="46.48" y="252.67" width="7.19" height="7.19" style="fill: rgb(255, 255, 255); transform-origin: 50.075px 256.265px;" id="el52b2jrxjprh" class="animable"></rect><path d="M54,260.26h-8v-8h8Zm-7.19-.8h6.39v-6.39H46.85Z" style="fill: rgb(235, 235, 235); transform-origin: 50px 256.26px;" id="el0g1qwvuv5hr6" class="animable"></path><rect x="46.48" y="223.84" width="7.19" height="7.19" style="fill: rgb(255, 255, 255); transform-origin: 50.075px 227.435px;" id="el3k6803hbm8y" class="animable"></rect><path d="M54,231.42h-8v-8h8Zm-7.19-.8h6.39v-6.38H46.85Z" style="fill: rgb(235, 235, 235); transform-origin: 50px 227.42px;" id="elcum4o1mtgt" class="animable"></path><rect x="104.15" y="281.51" width="7.19" height="7.19" style="fill: rgb(255, 255, 255); transform-origin: 107.745px 285.105px;" id="elpsnynch4hd" class="animable"></rect><path d="M111.71,289.09h-8v-8h8Zm-7.19-.8h6.39v-6.38h-6.39Z" style="fill: rgb(235, 235, 235); transform-origin: 107.71px 285.09px;" id="elwxlu1f6enpi" class="animable"></path><rect x="104.15" y="252.67" width="7.19" height="7.19" style="fill: rgb(255, 255, 255); transform-origin: 107.745px 256.265px;" id="elyj0o35b346o" class="animable"></rect><path d="M111.71,260.26h-8v-8h8Zm-7.19-.8h6.39v-6.39h-6.39Z" style="fill: rgb(235, 235, 235); transform-origin: 107.71px 256.26px;" id="el0hbyk2jturse" class="animable"></path><rect x="104.15" y="223.84" width="7.19" height="7.19" style="fill: rgb(255, 255, 255); transform-origin: 107.745px 227.435px;" id="elqnos9gnd3v" class="animable"></rect><path d="M111.71,231.42h-8v-8h8Zm-7.19-.8h6.39v-6.38h-6.39Z" style="fill: rgb(235, 235, 235); transform-origin: 107.71px 227.42px;" id="elhjrnfavq5v" class="animable"></path><rect x="75.32" y="223.84" width="7.19" height="7.19" style="fill: rgb(255, 255, 255); transform-origin: 78.915px 227.435px;" id="eliy46q3iqbm" class="animable"></rect><path d="M82.87,231.42h-8v-8h8Zm-7.18-.8h6.38v-6.38H75.69Z" style="fill: rgb(235, 235, 235); transform-origin: 78.87px 227.42px;" id="elgrrfn9uai1n" class="animable"></path><rect x="75.29" y="281.51" width="7.19" height="7.19" style="fill: rgb(255, 255, 255); transform-origin: 78.885px 285.105px;" id="el3zelt0ff49b" class="animable"></rect><path d="M82.87,289.09h-8v-8h8Zm-7.18-.8h6.38v-6.38H75.69Z" style="fill: rgb(235, 235, 235); transform-origin: 78.87px 285.09px;" id="elbiymlvft7xt" class="animable"></path><polygon points="453.55 162.84 452.35 162.84 452.35 162.03 452.75 162.03 452.75 161.63 453.55 161.63 453.55 162.84" style="fill: rgb(235, 235, 235); transform-origin: 452.95px 162.235px;" id="el6f9awtznn2b" class="animable"></polygon><path d="M450.75,162.84h-1.61V162h1.61Zm-3.21,0h-1.6V162h1.6Zm-3.2,0h-1.6V162h1.6Zm-3.21,0h-1.6V162h1.6Zm-3.2,0h-1.6V162h1.6Zm-3.2,0h-1.61V162h1.61Zm-3.21,0h-1.6V162h1.6Zm-3.2,0h-1.6V162h1.6Zm-3.21,0h-1.6V162h1.6Zm-3.2,0h-1.6V162h1.6Zm-3.2,0H417.1V162h1.61Zm-3.21,0h-1.6V162h1.6Zm-3.2,0h-1.6V162h1.6Zm-3.21,0h-1.6V162h1.6Zm-3.2,0h-1.6V162h1.6Zm-3.2,0h-1.61V162h1.61Zm-3.21,0h-1.6V162h1.6Z" style="fill: rgb(235, 235, 235); transform-origin: 424.315px 162.42px;" id="el8lfhcqe2w4c" class="animable"></path><polygon points="396.28 162.84 395.08 162.84 395.08 161.63 395.88 161.63 395.88 162.03 396.28 162.03 396.28 162.84" style="fill: rgb(235, 235, 235); transform-origin: 395.68px 162.235px;" id="elre70b9xjh6" class="animable"></polygon><path d="M395.88,160h-.8v-1.6h.8Zm0-3.2h-.8v-1.6h.8Zm0-3.21h-.8V152h.8Zm0-3.2h-.8v-1.6h.8Zm0-3.2h-.8v-1.61h.8Zm0-3.21h-.8v-1.6h.8Zm0-3.2h-.8v-1.6h.8Zm0-3.21h-.8V136h.8Zm0-3.2h-.8v-1.6h.8Zm0-3.2h-.8v-1.61h.8Zm0-3.21h-.8v-1.6h.8Zm0-3.2h-.8v-1.6h.8Zm0-3.2h-.8V120h.8Zm0-3.21h-.8v-1.6h.8Zm0-3.2h-.8v-1.6h.8Zm0-3.21h-.8v-1.6h.8Zm0-3.2h-.8v-1.6h.8Z" style="fill: rgb(235, 235, 235); transform-origin: 395.48px 133.57px;" id="el3sb71187okf" class="animable"></path><polygon points="395.88 105.57 395.08 105.57 395.08 104.36 396.28 104.36 396.28 105.17 395.88 105.17 395.88 105.57" style="fill: rgb(235, 235, 235); transform-origin: 395.68px 104.965px;" id="elwmr4eotn27" class="animable"></polygon><path d="M450.75,105.16h-1.61v-.8h1.61Zm-3.21,0h-1.6v-.8h1.6Zm-3.2,0h-1.6v-.8h1.6Zm-3.21,0h-1.6v-.8h1.6Zm-3.2,0h-1.6v-.8h1.6Zm-3.2,0h-1.61v-.8h1.61Zm-3.21,0h-1.6v-.8h1.6Zm-3.2,0h-1.6v-.8h1.6Zm-3.21,0h-1.6v-.8h1.6Zm-3.2,0h-1.6v-.8h1.6Zm-3.2,0H417.1v-.8h1.61Zm-3.21,0h-1.6v-.8h1.6Zm-3.2,0h-1.6v-.8h1.6Zm-3.21,0h-1.6v-.8h1.6Zm-3.2,0h-1.6v-.8h1.6Zm-3.2,0h-1.61v-.8h1.61Zm-3.21,0h-1.6v-.8h1.6Z" style="fill: rgb(235, 235, 235); transform-origin: 424.315px 104.76px;" id="el2p3p4405so4" class="animable"></path><polygon points="453.55 105.57 452.75 105.57 452.75 105.17 452.35 105.17 452.35 104.36 453.55 104.36 453.55 105.57" style="fill: rgb(235, 235, 235); transform-origin: 452.95px 104.965px;" id="elt2mqj6rj2s" class="animable"></polygon><path d="M453.55,160h-.8v-1.6h.8Zm0-3.2h-.8v-1.6h.8Zm0-3.21h-.8V152h.8Zm0-3.2h-.8v-1.6h.8Zm0-3.2h-.8v-1.61h.8Zm0-3.21h-.8v-1.6h.8Zm0-3.2h-.8v-1.6h.8Zm0-3.21h-.8V136h.8Zm0-3.2h-.8v-1.6h.8Zm0-3.2h-.8v-1.61h.8Zm0-3.21h-.8v-1.6h.8Zm0-3.2h-.8v-1.6h.8Zm0-3.2h-.8V120h.8Zm0-3.21h-.8v-1.6h.8Zm0-3.2h-.8v-1.6h.8Zm0-3.21h-.8v-1.6h.8Zm0-3.2h-.8v-1.6h.8Z" style="fill: rgb(235, 235, 235); transform-origin: 453.15px 133.57px;" id="elxy0ihkj22z" class="animable"></path><rect x="391.88" y="158.84" width="7.19" height="7.19" style="fill: rgb(255, 255, 255); transform-origin: 395.475px 162.435px;" id="ele62rnxxxyyk" class="animable"></rect><path d="M399.47,166.43h-8v-8h8Zm-7.19-.8h6.39v-6.39h-6.39Z" style="fill: rgb(235, 235, 235); transform-origin: 395.47px 162.43px;" id="el1aui00mmgey" class="animable"></path><rect x="391.91" y="130.01" width="7.19" height="7.19" style="fill: rgb(255, 255, 255); transform-origin: 395.505px 133.605px;" id="el8mofe2igr2u" class="animable"></rect><path d="M399.47,137.59h-8v-8h8Zm-7.19-.8h6.39v-6.38h-6.39Z" style="fill: rgb(235, 235, 235); transform-origin: 395.47px 133.59px;" id="el9trtt4lewm" class="animable"></path><rect x="391.91" y="101.17" width="7.19" height="7.19" style="fill: rgb(255, 255, 255); transform-origin: 395.505px 104.765px;" id="el9d8sekk3xhf" class="animable"></rect><path d="M399.47,108.76h-8v-8h8Zm-7.19-.8h6.39v-6.39h-6.39Z" style="fill: rgb(235, 235, 235); transform-origin: 395.47px 104.76px;" id="elm7u6gtcxl" class="animable"></path><rect x="449.59" y="158.84" width="7.19" height="7.19" style="fill: rgb(255, 255, 255); transform-origin: 453.185px 162.435px;" id="el59pew6k3bd5" class="animable"></rect><path d="M457.14,166.43h-8v-8h8Zm-7.18-.8h6.38v-6.39H450Z" style="fill: rgb(235, 235, 235); transform-origin: 453.14px 162.43px;" id="elfq0apv90hm" class="animable"></path><rect x="449.59" y="130.01" width="7.19" height="7.19" style="fill: rgb(255, 255, 255); transform-origin: 453.185px 133.605px;" id="el8ch2ataonyi" class="animable"></rect><path d="M457.14,137.59h-8v-8h8Zm-7.18-.8h6.38v-6.38H450Z" style="fill: rgb(235, 235, 235); transform-origin: 453.14px 133.59px;" id="elumtrxzi8q4i" class="animable"></path><rect x="449.59" y="101.17" width="7.19" height="7.19" style="fill: rgb(255, 255, 255); transform-origin: 453.185px 104.765px;" id="el4h1zm7m8mug" class="animable"></rect><path d="M457.14,108.76h-8v-8h8ZM450,108h6.38v-6.39H450Z" style="fill: rgb(235, 235, 235); transform-origin: 453.14px 104.76px;" id="elm4a37sywc4c" class="animable"></path><rect x="420.75" y="101.17" width="7.19" height="7.19" style="fill: rgb(255, 255, 255); transform-origin: 424.345px 104.765px;" id="elr23yjbbsmj" class="animable"></rect><path d="M428.31,108.76h-8v-8h8Zm-7.19-.8h6.39v-6.39h-6.39Z" style="fill: rgb(235, 235, 235); transform-origin: 424.31px 104.76px;" id="elmta2abuwkua" class="animable"></path><rect x="420.72" y="158.84" width="7.19" height="7.19" style="fill: rgb(255, 255, 255); transform-origin: 424.315px 162.435px;" id="elra89a02tc3l" class="animable"></rect><path d="M428.31,166.43h-8v-8h8Zm-7.19-.8h6.39v-6.39h-6.39Z" style="fill: rgb(235, 235, 235); transform-origin: 424.31px 162.43px;" id="el9q36d2bq06i" class="animable"></path><path d="M185.32,123.06H58.68V36.42H185.32Zm-125.64-1H184.32V37.42H59.68Z" style="fill: rgb(235, 235, 235); transform-origin: 122px 79.74px;" id="elt5c9b2dbruq" class="animable"></path><path d="M68.58,42a2.52,2.52,0,1,1-2.52-2.52A2.52,2.52,0,0,1,68.58,42Z" style="fill: rgb(166, 166, 166); transform-origin: 66.06px 42px;" id="el2m4q43jp4ui" class="animable"></path><path d="M78.87,42a2.52,2.52,0,1,1-2.52-2.52A2.52,2.52,0,0,1,78.87,42Z" style="fill: rgb(235, 235, 235); transform-origin: 76.35px 42px;" id="el17ohey5gtif" class="animable"></path><path d="M89.17,42a2.52,2.52,0,1,1-2.52-2.52A2.52,2.52,0,0,1,89.17,42Z" style="fill: rgb(255, 199, 39); transform-origin: 86.65px 42px;" id="elk24cgkru5s" class="animable"></path><rect x="59.18" y="46.44" width="125.64" height="1" style="fill: rgb(235, 235, 235); transform-origin: 122px 46.94px;" id="el57438ilkxrq" class="animable"></rect><path d="M54.88,205.68a2.14,2.14,0,0,1,2.26,0l.57.32.6.31a2.13,2.13,0,0,1,1.25,1.86l.09,2.76,9-.28-.09-2.76A2.16,2.16,0,0,1,69.71,206a12.15,12.15,0,0,0,1.15-.7,2.13,2.13,0,0,1,2.24-.15l2.43,1.31,4.27-8-2.44-1.3a2.17,2.17,0,0,1-1.12-1.95,12.07,12.07,0,0,0,0-1.34,2.14,2.14,0,0,1,1-2l2.35-1.46-4.75-7.66-2.37,1.46a2.13,2.13,0,0,1-2.24,0l-.57-.32q-.3-.16-.6-.3a2.15,2.15,0,0,1-1.25-1.87l-.09-2.77-9,.28.08,2.76a2.13,2.13,0,0,1-1.13,2,11.35,11.35,0,0,0-1.14.71,2.15,2.15,0,0,1-2.24.14l-2.44-1.3-4.26,8L50,192.7a2.16,2.16,0,0,1,1.12,2,12.18,12.18,0,0,0,0,1.35,2.14,2.14,0,0,1-1,2l-2.35,1.45,4.75,7.67Zm2.26-14.24a7.39,7.39,0,1,1,3,10A7.39,7.39,0,0,1,57.14,191.44Z" style="fill: rgb(235, 235, 235); transform-origin: 63.695px 194.94px;" id="ellmw15ylq4cc" class="animable"></path><path d="M77.94,171.18a1.48,1.48,0,0,1,1.39-.74h.94a1.51,1.51,0,0,1,1.39.73l1,1.68,5.47-3.15-1-1.68a1.5,1.5,0,0,1,.06-1.58,9.23,9.23,0,0,0,.47-.82,1.51,1.51,0,0,1,1.33-.83h1.94v-6.32H89a1.5,1.5,0,0,1-1.33-.83c-.15-.28-.3-.55-.47-.81a1.5,1.5,0,0,1-.06-1.58l1-1.68-5.47-3.16-1,1.69a1.49,1.49,0,0,1-1.39.73h-.93a1.49,1.49,0,0,1-1.39-.73l-1-1.69-5.48,3.16,1,1.68a1.48,1.48,0,0,1,0,1.57c-.17.27-.33.54-.47.82a1.5,1.5,0,0,1-1.34.83H68.67v6.32H70.6a1.51,1.51,0,0,1,1.34.84,8.13,8.13,0,0,0,.47.81,1.5,1.5,0,0,1,0,1.58l-1,1.68L77,172.85Zm-3.32-9.54a5.18,5.18,0,1,1,5.18,5.17A5.18,5.18,0,0,1,74.62,161.64Z" style="fill: rgb(235, 235, 235); transform-origin: 79.8px 161.63px;" id="elx8409yhjc7i" class="animable"></path><path d="M438,339.26a1.5,1.5,0,0,1-.74-1.4c0-.15,0-.3,0-.46s0-.31,0-.47a1.49,1.49,0,0,1,.73-1.39l1.68-1-3.15-5.47-1.68,1a1.52,1.52,0,0,1-1.58-.06,7.28,7.28,0,0,0-.82-.47,1.51,1.51,0,0,1-.82-1.34v-1.93H425.3v1.93a1.5,1.5,0,0,1-.83,1.34,8.13,8.13,0,0,0-.81.47,1.52,1.52,0,0,1-1.58.06l-1.68-1-3.16,5.47,1.69,1a1.49,1.49,0,0,1,.73,1.38c0,.16,0,.31,0,.47s0,.31,0,.46a1.52,1.52,0,0,1-.73,1.4l-1.69,1,3.16,5.47,1.68-1a1.5,1.5,0,0,1,1.57.06c.27.17.54.33.82.47a1.5,1.5,0,0,1,.83,1.34v1.93h6.33V346.6a1.5,1.5,0,0,1,.83-1.34,8.13,8.13,0,0,0,.81-.47,1.52,1.52,0,0,1,1.58-.06l1.68,1,3.15-5.47Zm-9.54,3.32a5.18,5.18,0,1,1,5.17-5.18A5.18,5.18,0,0,1,428.47,342.58Z" style="fill: rgb(235, 235, 235); transform-origin: 428.46px 337.395px;" id="elo1c2l92nsn8" class="animable"></path></g><g id="freepik--Shadow--inject-5" class="animable" style="transform-origin: 262.25px 453.13px;"><ellipse cx="262.25" cy="453.13" rx="174.67" ry="16.83" style="fill: rgb(235, 235, 235); transform-origin: 262.25px 453.13px;" id="eltnj7ykyupgh" class="animable"></ellipse></g><g id="freepik--Floor--inject-5" class="animable animator-hidden" style="transform-origin: 249.995px 430.13px;"><polygon points="46.98 430.13 97.74 429.88 148.49 429.8 250 429.63 351.51 429.8 402.26 429.88 453.01 430.13 402.26 430.37 351.51 430.46 250 430.63 148.49 430.46 97.74 430.37 46.98 430.13" style="fill: rgb(38, 50, 56); transform-origin: 249.995px 430.13px;" id="el3iivf3y1e4s" class="animable"></polygon></g><g id="freepik--Screens--inject-5" class="animable animator-hidden" style="transform-origin: 250px 236.73px;"><rect x="78.88" y="51.89" width="342.24" height="369.68" style="fill: rgb(255, 255, 255); transform-origin: 250px 236.73px;" id="elzu1t578jcl" class="animable"></rect><path d="M421.37,421.82H78.63V51.64H421.37Zm-342.24-.5H420.87V52.14H79.13Z" style="fill: rgb(219, 219, 219); transform-origin: 250px 236.73px;" id="el0eyffvfn28y" class="animable"></path><rect x="78.88" y="51.89" width="342.24" height="8.33" style="fill: rgb(255, 199, 39); transform-origin: 250px 56.055px;" id="eluodt4zk7zws" class="animable"></rect><path d="M85.5,56.06A2.07,2.07,0,1,1,83.44,54,2.06,2.06,0,0,1,85.5,56.06Z" style="fill: rgb(38, 50, 56); transform-origin: 83.43px 56.07px;" id="elewz5942018c" class="animable"></path><path d="M93.94,56.06A2.07,2.07,0,1,1,91.87,54,2.07,2.07,0,0,1,93.94,56.06Z" style="fill: rgb(255, 255, 255); transform-origin: 91.87px 56.07px;" id="elohtbzwg9xo" class="animable"></path><path d="M102.38,56.06A2.07,2.07,0,1,1,100.31,54,2.07,2.07,0,0,1,102.38,56.06Z" style="fill: rgb(69, 90, 100); transform-origin: 100.31px 56.07px;" id="eldo5d47s5rac" class="animable"></path><rect x="323.96" y="67.35" width="89.86" height="12.26" style="fill: rgb(255, 255, 255); transform-origin: 368.89px 73.48px;" id="elfp3xd0kd265" class="animable"></rect><path d="M413.94,79.74H323.83V67.23h90.11Zm-89.86-.25h89.61v-12H324.08Z" style="fill: rgb(199, 199, 199); transform-origin: 368.885px 73.485px;" id="el1unmfpae694" class="animable"></path><rect x="401.43" y="67.23" width="12.52" height="12.52" style="fill: rgb(255, 199, 39); transform-origin: 407.69px 73.49px;" id="elq9smv53cpt" class="animable"></rect><path d="M411.57,76.92l-1.13.86L408.34,75l-.76-1a2.16,2.16,0,0,0,.44-.25,1.94,1.94,0,0,0,.58-.76l.81,1.08Z" style="fill: rgb(255, 255, 255); transform-origin: 409.575px 75.385px;" id="eleh14dap4vgg" class="animable"></path><path d="M409.35,70.4a3.09,3.09,0,1,0-1,4.61,2.44,2.44,0,0,0,.43-.28,3.09,3.09,0,0,0,.58-4.33ZM408,73.75a2.16,2.16,0,0,1-.44.25,1.85,1.85,0,1,1,1-1A1.94,1.94,0,0,1,408,73.75Z" style="fill: rgb(255, 255, 255); transform-origin: 406.901px 72.2818px;" id="el695swu85cck" class="animable"></path><rect x="326.52" y="69.76" width="0.66" height="7.44" style="fill: rgb(199, 199, 199); transform-origin: 326.85px 73.48px;" id="el2ai2nzvrg8z" class="animable"></rect><rect x="118.78" y="67.35" width="200.57" height="12.26" style="fill: rgb(255, 255, 255); transform-origin: 219.065px 73.48px;" id="elylia5h68am" class="animable"></rect><path d="M319.47,79.74H118.65V67.23H319.47ZM118.9,79.49H319.22v-12H118.9Z" style="fill: rgb(199, 199, 199); transform-origin: 219.06px 73.485px;" id="elfkb9by9w5c" class="animable"></path><rect x="121.34" y="69.76" width="0.66" height="7.44" style="fill: rgb(199, 199, 199); transform-origin: 121.67px 73.48px;" id="el0ri24fnbcc7q" class="animable"></rect><rect x="87.68" y="67.23" width="12.52" height="12.52" style="fill: rgb(255, 199, 39); transform-origin: 93.94px 73.49px;" id="elj2kmkfyc2gg" class="animable"></rect><polygon points="95.64 77.68 91.17 73.57 95.63 69.3 96.32 70.02 92.63 73.56 96.31 76.94 95.64 77.68" style="fill: rgb(255, 255, 255); transform-origin: 93.745px 73.49px;" id="el6hhef9yflrp" class="animable"></polygon><g id="elm06cdzp249l"><rect x="101.86" y="67.23" width="12.52" height="12.52" style="fill: rgb(255, 199, 39); transform-origin: 108.12px 73.49px; transform: rotate(180deg);" class="animable"></rect></g><polygon points="106.42 69.29 110.88 73.4 106.42 77.67 105.73 76.95 109.42 73.41 105.74 70.02 106.42 69.29" style="fill: rgb(255, 255, 255); transform-origin: 108.305px 73.48px;" id="el4t1p9e1hrxe" class="animable"></polygon><g id="el2kupgkg0x84"><rect x="229.78" y="-55.6" width="42.13" height="325.96" style="fill: rgb(255, 255, 255); transform-origin: 250.845px 107.38px; transform: rotate(90deg);" class="animable"></rect></g><path d="M414.07,128.69H87.61V86.07H414.07Zm-326-.5H413.57V86.57H88.11Z" style="fill: rgb(219, 219, 219); transform-origin: 250.84px 107.38px;" id="el0j2tq7hfdfn" class="animable"></path><g id="eljtiwwind2sp"><rect x="250.59" y="-56.95" width="0.5" height="328.67" style="fill: rgb(219, 219, 219); transform-origin: 250.84px 107.385px; transform: rotate(-82.64deg);" class="animable"></rect></g><g id="elpeunpll21g9"><rect x="86.5" y="107.13" width="328.67" height="0.5" style="fill: rgb(219, 219, 219); transform-origin: 250.835px 107.38px; transform: rotate(-7.41deg);" class="animable"></rect></g><path d="M141.06,412.28H87.61V387.71h53.45Zm-52.95-.5h52.45V388.21H88.11Z" style="fill: rgb(219, 219, 219); transform-origin: 114.335px 399.995px;" id="elui0r6mdt4nm" class="animable"></path><g id="elaoqsmezlsq"><rect x="114.09" y="370.91" width="0.5" height="58.16" style="fill: rgb(219, 219, 219); transform-origin: 114.34px 399.99px; transform: rotate(-65.56deg);" class="animable"></rect></g><g id="elehuhzmh3suk"><rect x="85.25" y="399.75" width="58.16" height="0.5" style="fill: rgb(219, 219, 219); transform-origin: 114.33px 400px; transform: rotate(-24.46deg);" class="animable"></rect></g><path d="M414.07,412.28H360.62V387.71h53.45Zm-52.95-.5h52.45V388.21H361.12Z" style="fill: rgb(219, 219, 219); transform-origin: 387.345px 399.995px;" id="eluj2axb1985q" class="animable"></path><g id="el3k4vtvyrbky"><rect x="387.09" y="370.91" width="0.5" height="58.16" style="fill: rgb(219, 219, 219); transform-origin: 387.34px 399.99px; transform: rotate(-65.56deg);" class="animable"></rect></g><g id="elg6adhji6rqt"><rect x="358.26" y="399.75" width="58.16" height="0.5" style="fill: rgb(219, 219, 219); transform-origin: 387.34px 400px; transform: rotate(-24.47deg);" class="animable"></rect></g><path d="M346.08,412.28H292.62V387.71h53.46Zm-53-.5h52.46V388.21H293.12Z" style="fill: rgb(219, 219, 219); transform-origin: 319.35px 399.995px;" id="elf5vdptrb1hs" class="animable"></path><g id="el15n12umufhu"><rect x="319.1" y="370.91" width="0.5" height="58.16" style="fill: rgb(219, 219, 219); transform-origin: 319.35px 399.99px; transform: rotate(-65.56deg);" class="animable"></rect></g><g id="el0no7olxll4g"><rect x="290.27" y="399.75" width="58.16" height="0.5" style="fill: rgb(219, 219, 219); transform-origin: 319.35px 400px; transform: rotate(-24.46deg);" class="animable"></rect></g><path d="M208.35,412.28H154.9V387.71h53.45Zm-52.95-.5h52.45V388.21H155.4Z" style="fill: rgb(219, 219, 219); transform-origin: 181.625px 399.995px;" id="elvnx21bfjty" class="animable"></path><g id="elnnrsiq1ar5"><rect x="181.38" y="370.91" width="0.5" height="58.16" style="fill: rgb(219, 219, 219); transform-origin: 181.63px 399.99px; transform: rotate(-65.56deg);" class="animable"></rect></g><g id="ele7kw0xtb65n"><rect x="152.55" y="399.75" width="58.16" height="0.5" style="fill: rgb(219, 219, 219); transform-origin: 181.63px 400px; transform: rotate(-24.47deg);" class="animable"></rect></g><path d="M276.73,412.28H223.27V387.71h53.46Zm-53-.5h52.46V388.21H223.77Z" style="fill: rgb(219, 219, 219); transform-origin: 250px 399.995px;" id="elpd4jfqafa88" class="animable"></path><g id="eldqbbw47ee67"><rect x="249.75" y="370.91" width="0.5" height="58.16" style="fill: rgb(219, 219, 219); transform-origin: 250px 399.99px; transform: rotate(-65.56deg);" class="animable"></rect></g><g id="el0018f0s6wprhw"><rect x="220.92" y="399.75" width="58.16" height="0.5" style="fill: rgb(219, 219, 219); transform-origin: 250px 400px; transform: rotate(-24.47deg);" class="animable"></rect></g><g id="el0ebrtilggk1e"><rect x="87.86" y="135.05" width="73.73" height="66.71" style="fill: rgb(235, 235, 235); transform-origin: 124.725px 168.405px; transform: rotate(180deg);" class="animable"></rect></g><path d="M97.38,149.64a7.9,7.9,0,1,0,6.2-6.2A7.9,7.9,0,0,0,97.38,149.64Z" style="fill: rgb(219, 219, 219); transform-origin: 105.127px 151.187px;" id="el579ykse3oo2" class="animable"></path><polygon points="108.61 187.39 161.59 187.39 135.1 151.49 108.61 187.39" style="fill: rgb(199, 199, 199); transform-origin: 135.1px 169.44px;" id="elgtm1ay5n7t" class="animable"></polygon><polygon points="87.86 187.43 131.6 187.43 109.73 164.04 87.86 187.43" style="fill: rgb(219, 219, 219); transform-origin: 109.73px 175.735px;" id="elge7rd68ytj8" class="animable"></polygon><rect x="87.86" y="187.39" width="73.73" height="14.37" style="fill: rgb(219, 219, 219); transform-origin: 124.725px 194.575px;" id="elmv4apbdydq" class="animable"></rect><rect x="171.79" y="135.11" width="49.4" height="4.16" style="fill: rgb(166, 166, 166); transform-origin: 196.49px 137.19px;" id="elapexw4ptyae" class="animable"></rect><rect x="171.79" y="144.76" width="142.97" height="4.16" style="fill: rgb(235, 235, 235); transform-origin: 243.275px 146.84px;" id="el2v3ehpwpl7c" class="animable"></rect><rect x="171.79" y="153.9" width="142.97" height="4.16" style="fill: rgb(235, 235, 235); transform-origin: 243.275px 155.98px;" id="elson1jyr4zye" class="animable"></rect><rect x="171.79" y="163.05" width="142.97" height="4.16" style="fill: rgb(235, 235, 235); transform-origin: 243.275px 165.13px;" id="eloju6f49h3co" class="animable"></rect><rect x="171.79" y="172.19" width="142.97" height="4.16" style="fill: rgb(235, 235, 235); transform-origin: 243.275px 174.27px;" id="eldrfz0a255rk" class="animable"></rect><rect x="171.79" y="181.34" width="142.97" height="4.16" style="fill: rgb(235, 235, 235); transform-origin: 243.275px 183.42px;" id="el1b6a3zw0t9e" class="animable"></rect><rect x="246.09" y="211.17" width="49.4" height="4.16" style="fill: rgb(166, 166, 166); transform-origin: 270.79px 213.25px;" id="elc60mb6mif37" class="animable"></rect><rect x="246.09" y="220.81" width="68.68" height="4.16" style="fill: rgb(235, 235, 235); transform-origin: 280.43px 222.89px;" id="elvh84d90hssd" class="animable"></rect><rect x="246.09" y="229.96" width="68.68" height="4.16" style="fill: rgb(235, 235, 235); transform-origin: 280.43px 232.04px;" id="elzowx34pcou" class="animable"></rect><rect x="246.09" y="239.1" width="68.68" height="4.16" style="fill: rgb(235, 235, 235); transform-origin: 280.43px 241.18px;" id="el6v4816ufub8" class="animable"></rect><rect x="246.09" y="248.25" width="68.68" height="4.16" style="fill: rgb(235, 235, 235); transform-origin: 280.43px 250.33px;" id="elp6149rkfd6s" class="animable"></rect><rect x="246.09" y="257.39" width="68.68" height="4.16" style="fill: rgb(235, 235, 235); transform-origin: 280.43px 259.47px;" id="eldnc66hopugb" class="animable"></rect><rect x="171.79" y="190.42" width="142.97" height="11.34" style="fill: rgb(255, 199, 39); transform-origin: 243.275px 196.09px;" id="elewh5q84qapb" class="animable"></rect><rect x="323.96" y="153.9" width="89.86" height="226.08" style="fill: rgb(255, 255, 255); transform-origin: 368.89px 266.94px;" id="el26y67hr2r85" class="animable"></rect><path d="M414.07,380.23H323.71V153.65h90.36Zm-89.86-.5h89.36V154.15H324.21Z" style="fill: rgb(219, 219, 219); transform-origin: 368.89px 266.94px;" id="el4e7yyyx0cxr" class="animable"></path><g id="el9ktki1u6gsh"><rect x="247.24" y="266.69" width="243.29" height="0.5" style="fill: rgb(219, 219, 219); transform-origin: 368.885px 266.94px; transform: rotate(-68.25deg);" class="animable"></rect></g><g id="el89hex00u9p"><rect x="368.64" y="145.3" width="0.5" height="243.29" style="fill: rgb(219, 219, 219); transform-origin: 368.89px 266.945px; transform: rotate(-21.68deg);" class="animable"></rect></g><rect x="323.96" y="135.11" width="89.86" height="18.79" style="fill: rgb(255, 199, 39); transform-origin: 368.89px 144.505px;" id="elublxvznylbl" class="animable"></rect><g id="elziutjt2b0rb"><rect x="90.21" y="273.91" width="61.63" height="148.08" style="fill: rgb(255, 255, 255); transform-origin: 121.025px 347.95px; transform: rotate(90deg);" class="animable"></rect></g><path d="M195.32,379H46.74V316.89H195.32Zm-148.08-.5H194.82V317.39H47.24Z" style="fill: rgb(219, 219, 219); transform-origin: 121.03px 347.945px;" id="eltdyrnlaw7ns" class="animable"></path><polygon points="194.97 379 46.89 317.37 47.08 316.91 195.16 378.54 194.97 379" style="fill: rgb(219, 219, 219); transform-origin: 121.025px 347.955px;" id="el8b7izb2vxfp" class="animable"></polygon><polygon points="47.08 379 46.89 378.54 194.97 316.91 195.16 317.37 47.08 379" style="fill: rgb(219, 219, 219); transform-origin: 121.025px 347.955px;" id="ellqzkejwugs9" class="animable"></polygon><g id="eljstoshy0b6"><rect x="362.3" y="232.69" width="61.57" height="119.86" style="fill: rgb(255, 255, 255); transform-origin: 393.085px 292.62px; transform: rotate(90deg);" class="animable"></rect></g><path d="M453.26,323.66H332.9V261.59H453.26Zm-119.86-.5H452.76V262.09H333.4Z" style="fill: rgb(219, 219, 219); transform-origin: 393.08px 292.625px;" id="elh5nfq0n70in" class="animable"></path><g id="elxk63mukbm28"><rect x="340.4" y="269.84" width="50.35" height="45.56" style="fill: rgb(235, 235, 235); transform-origin: 365.575px 292.62px; transform: rotate(180deg);" class="animable"></rect></g><path d="M346.9,279.81a5.39,5.39,0,1,0,4.24-4.24A5.4,5.4,0,0,0,346.9,279.81Z" style="fill: rgb(219, 219, 219); transform-origin: 352.187px 280.857px;" id="el0mxj15h9w1sd" class="animable"></path><polygon points="354.57 305.58 390.75 305.58 372.66 281.07 354.57 305.58" style="fill: rgb(199, 199, 199); transform-origin: 372.66px 293.325px;" id="eljsddknssof" class="animable"></polygon><polygon points="340.4 305.61 370.27 305.61 355.33 289.64 340.4 305.61" style="fill: rgb(219, 219, 219); transform-origin: 355.335px 297.625px;" id="el8touipki4za" class="animable"></polygon><rect x="340.4" y="305.58" width="50.35" height="9.82" style="fill: rgb(219, 219, 219); transform-origin: 365.575px 310.49px;" id="elijxq6ijvm5b" class="animable"></rect><rect x="399.18" y="269.84" width="42.89" height="3.12" style="fill: rgb(235, 235, 235); transform-origin: 420.625px 271.4px;" id="el6gi0rklg1cd" class="animable"></rect><rect x="399.18" y="276.3" width="42.89" height="3.12" style="fill: rgb(235, 235, 235); transform-origin: 420.625px 277.86px;" id="el93lc1d3si89" class="animable"></rect><rect x="399.18" y="282.76" width="42.89" height="3.12" style="fill: rgb(235, 235, 235); transform-origin: 420.625px 284.32px;" id="elecq8q55smrm" class="animable"></rect><rect x="399.18" y="289.22" width="42.89" height="3.12" style="fill: rgb(235, 235, 235); transform-origin: 420.625px 290.78px;" id="elxbctw36robm" class="animable"></rect><rect x="399.18" y="295.68" width="42.89" height="3.12" style="fill: rgb(235, 235, 235); transform-origin: 420.625px 297.24px;" id="el0f11h2xopkmm" class="animable"></rect></g><g id="freepik--Character--inject-5" class="animable" style="transform-origin: 267.425px 284.607px;"><path d="M276.79,392s0,40.44,0,40.47c0,7.73-.07,14.51-.45,18a.13.13,0,0,1,0,.06,5.3,5.3,0,0,1-.56,2.39.1.1,0,0,1,0,.05c-2.29,1.57-64.08,3.68-66.26,3s-.5-6.91,1.83-8.91,25.64-13.38,25.64-13.38l.39-40.42Z" style="fill: rgb(235, 148, 129); transform-origin: 242.649px 424.051px;" id="eljlmbi59ojg" class="animable"></path><path d="M276.79,424.15s0,8.28,0,8.31c0,7.73-.07,14.51-.45,18a.13.13,0,0,1,0,.06,10.11,10.11,0,0,1-.56,2.39.1.1,0,0,1,0,.05c-2.29,1.57-64.08,3.68-66.26,3s-.5-6.91,1.83-8.91,25.64-13.38,25.64-13.38l-.11-8.43Z" style="fill: rgb(255, 255, 255); transform-origin: 242.649px 440.121px;" id="eloztk4yqlyqi" class="animable"></path><path d="M209.46,456c2.19.66,64-1.46,66.27-3,.89-.59,1.1-9.61,1-20.51v-.35L236.9,433l0,.68S213.65,445.1,211.3,447.1,207.28,455.36,209.46,456Z" style="fill: rgb(255, 199, 39); transform-origin: 242.599px 444.132px;" id="elvyk8s2eeo19" class="animable"></path><path d="M210.08,453.58c10.41-.61,52.44-2.09,62.77-1.91.09,0,.09.06,0,.07-10.3.83-52.34,2-62.76,2C209.87,453.76,209.86,453.6,210.08,453.58Z" style="fill: rgb(38, 50, 56); transform-origin: 241.419px 452.698px;" id="el0g7350jtpvrv" class="animable"></path><path d="M233.59,433.94c4.08-.9,9.11-.44,12.34,2.37.13.11,0,.28-.16.25a57.37,57.37,0,0,0-12.14-2.1A.26.26,0,0,1,233.59,433.94Z" style="fill: rgb(38, 50, 56); transform-origin: 239.666px 435.044px;" id="eljj5ehx07phn" class="animable"></path><path d="M230.7,435.83c4.07-.91,9.1-.45,12.33,2.36.13.11,0,.29-.16.25a58,58,0,0,0-12.14-2.09A.26.26,0,0,1,230.7,435.83Z" style="fill: rgb(38, 50, 56); transform-origin: 236.769px 436.927px;" id="elxkwc5tafmd" class="animable"></path><path d="M227.8,437.71c4.07-.9,9.11-.45,12.34,2.37.12.11,0,.28-.17.25a57.37,57.37,0,0,0-12.14-2.1A.26.26,0,0,1,227.8,437.71Z" style="fill: rgb(38, 50, 56); transform-origin: 233.873px 438.813px;" id="elgx5rg5obrs" class="animable"></path><polygon points="280.34 242.05 280.3 244.73 278.79 362.92 278.78 363.37 277.88 434.16 234.63 433.3 242.98 242.19 243.09 239.64 243.52 217.47 280.05 217.47 280.34 242.05" style="fill: rgb(69, 90, 100); transform-origin: 257.485px 325.815px;" id="elt1bh1hr4pig" class="animable"></polygon><path d="M236.44,426.08c6.75-.06,4.82-.14,11.57-.12,3.3,0,25,.08,28.1.63a.07.07,0,0,1,0,.14c-3.1.47-24.81,0-28.11-.05-6.75-.15-4.81-.18-11.56-.4A.1.1,0,0,1,236.44,426.08Z" style="fill: rgb(38, 50, 56); transform-origin: 256.26px 426.447px;" id="el2cm6eyyxsyp" class="animable"></path><path d="M270.55,402.08q.12-9.7.31-19.41.38-19.4.72-38.8.72-38.61,1.24-77.22c.22-14.52.22-29,.59-43.56,0,0,.06,0,.06,0,.24,12.93.09,25.88.07,38.81s-.08,25.88-.2,38.82c-.25,25.74-.61,51.48-1.22,77.22-.17,7.26-.35,14.52-.6,21.77s-.41,14.53-.92,21.77a.09.09,0,0,1-.18,0C270.3,415,270.46,408.54,270.55,402.08Z" style="fill: rgb(38, 50, 56); transform-origin: 271.991px 322.33px;" id="el388wofh9d2x" class="animable"></path><polygon points="280.33 242.06 278.79 362.92 249.8 217.47 280.04 217.47 280.33 242.06" style="fill: rgb(38, 50, 56); transform-origin: 265.065px 290.195px;" id="el4lg69sxyyn5" class="animable"></polygon><path d="M342.94,371.76s20.87,33.91,20.88,33.94c3.39,6.95,6.24,13.1,7.41,16.42a.14.14,0,0,1,0,.06,5.2,5.2,0,0,1,.53,2.4.13.13,0,0,1,0,.06c-1.39,2.41-56.15,31.11-58.4,31.47s-3.44-6-2.21-8.83,17.3-23.18,17.3-23.18L308,390Z" style="fill: rgb(235, 148, 129); transform-origin: 339.882px 413.942px;" id="elvvt2ck804b" class="animable"></path><path d="M371.78,424.58a.13.13,0,0,1,0,.06c-1.39,2.41-56.15,31.11-58.4,31.47s-3.44-6-2.21-8.83,17.3-23.18,17.3-23.18L324.8,418c8.95-4.77,25.22-13.15,35.32-18.34l3.7,6c3.39,6.95,6.24,13.1,7.41,16.42a.14.14,0,0,1,0,.06A5.2,5.2,0,0,1,371.78,424.58Z" style="fill: rgb(255, 255, 255); transform-origin: 341.23px 427.892px;" id="elbtwb2akdifq" class="animable"></path><path d="M313.37,456.11c2.25-.36,57-29.06,58.4-31.47.54-.91-3.18-9.14-7.95-18.94l-.15-.31-35.54,18.12.33.6s-16,20.35-17.29,23.17S311.12,456.48,313.37,456.11Z" style="fill: rgb(255, 199, 39); transform-origin: 341.235px 430.758px;" id="eleejcbntcryd" class="animable"></path><path d="M312.88,453.66c9.11-5.06,46.34-24.63,55.73-28.94.08,0,.1,0,0,.06-8.92,5.21-46.31,24.48-55.68,29C312.76,453.91,312.69,453.77,312.88,453.66Z" style="fill: rgb(38, 50, 56); transform-origin: 340.722px 439.276px;" id="el22oierycmjt" class="animable"></path><path d="M325.55,425.77c3.28-2.58,8-4.35,12.14-3.22.16,0,.1.27,0,.29a57.65,57.65,0,0,0-11.85,3.38A.26.26,0,0,1,325.55,425.77Z" style="fill: rgb(38, 50, 56); transform-origin: 331.608px 424.232px;" id="eljns3k6gjicn" class="animable"></path><path d="M323.75,428.72c3.28-2.58,8-4.35,12.15-3.22.16.05.09.27,0,.3A58.08,58.08,0,0,0,324,429.17.26.26,0,0,1,323.75,428.72Z" style="fill: rgb(38, 50, 56); transform-origin: 329.821px 427.17px;" id="el43gx2vlkcqp" class="animable"></path><path d="M322,431.68c3.28-2.59,8-4.36,12.14-3.22.16,0,.1.27,0,.29a57.56,57.56,0,0,0-11.84,3.38A.26.26,0,0,1,322,431.68Z" style="fill: rgb(38, 50, 56); transform-origin: 328.06px 430.141px;" id="elbwweoqy6qzw" class="animable"></path><path d="M247.23,217.44v0c.16.76,2.72,12.61,5.36,22.78,1.93,7.44,3.91,14,5,14.65s7.55,3.54,9.66,4.42c0,0,14.11,70.42,21.55,92.26,6.88,20.15,35.31,74,35.31,74l41.26-20.85s-32.22-54.66-35.61-64.47c-5.25-15.2-26.74-91-26.74-91s3.68-19.34-5.86-31.86Z" style="fill: rgb(69, 90, 100); transform-origin: 306.3px 321.46px;" id="elk9bvnhd6t09" class="animable"></path><path d="M324.78,417.54c5.9-3.29,4.16-2.43,10.09-5.66,2.9-1.58,22-11.94,24.95-12.93.07,0,.12.08.07.12-2.49,1.9-21.75,11.93-24.68,13.45-6,3.11-4.31,2.15-10.34,5.2A.1.1,0,0,1,324.78,417.54Z" style="fill: rgb(38, 50, 56); transform-origin: 342.318px 408.34px;" id="el02mseh196ucl" class="animable"></path><path d="M294.31,244.36c-1.13-.29-2.34-.38-3.49-.56-.93-.15-1.86-.31-2.78-.52a12.1,12.1,0,0,1-4.9-2.06,11.62,11.62,0,0,1-3.18-4.94c-.46-1.08-.93-2.14-1.41-3.21l-.71-1.55a18.32,18.32,0,0,1-.87-1.85c0-.09-.18,0-.14,0a12.12,12.12,0,0,1,.39,1.34c.16.51.31,1,.47,1.55.28.93.56,1.85.87,2.77a21.6,21.6,0,0,0,2,4.86c1.71,2.71,4.75,3.8,7.8,4.19.87.11,1.75.17,2.63.22a18.41,18.41,0,0,0,3.32,0A.15.15,0,0,0,294.31,244.36Z" style="fill: rgb(38, 50, 56); transform-origin: 285.597px 237.152px;" id="elsahtfl93dh" class="animable"></path><path d="M254.31,253.24a82.5,82.5,0,0,1,12.93,6,.15.15,0,0,1-.12.27c-4.36-1.87-8.8-3.66-13.05-5.77A.29.29,0,0,1,254.31,253.24Z" style="fill: rgb(38, 50, 56); transform-origin: 260.641px 256.376px;" id="el942lnr86n7" class="animable"></path><path d="M253,223.4c0-.15.27-.18.27,0,0,5.17.3,9.72.73,14.56.2,2.24,2,14.64,5.9,13.74.65-.15,1-.8,1.09-1.78a16,16,0,0,0-.52-3.8c-.43-2.6-.78-5.2-1-7.82a70.52,70.52,0,0,1,.16-14.67.13.13,0,0,1,.25,0,134.35,134.35,0,0,0,1.18,20.25c.49,3.23,2.11,8.08-1.26,8.58s-5.66-7.63-6.08-9.85A74.36,74.36,0,0,1,253,223.4Z" style="fill: rgb(38, 50, 56); transform-origin: 257.282px 237.879px;" id="elwj8kinvn0b" class="animable"></path><path d="M259.8,252a21,21,0,0,1,.87,2.57,5.72,5.72,0,0,1,.36,2.11c0,.14-.19.15-.26.06a7.55,7.55,0,0,1-.91-2.05c-.29-.8-.61-1.59-.88-2.39A.44.44,0,0,1,259.8,252Z" style="fill: rgb(38, 50, 56); transform-origin: 260px 254.28px;" id="elhbp48yrs41g" class="animable"></path><path d="M354.29,397.9c-5.87-11.06-11.92-22-18-33-3-5.39-6.12-10.73-9-16.2a98,98,0,0,1-6.53-16.89q-5.44-17.72-10.32-35.59t-9.15-35.92c-.72-3-1.5-6-2.08-9a27.94,27.94,0,0,1,0-9.26,29.71,29.71,0,0,0,.07-8.63,56.69,56.69,0,0,0-2-8.42c-.45-1.46-1-2.89-1.45-4.33,0-.16-.3-.09-.25.07,1.78,5.82,3.6,11.71,3.22,17.87-.19,3-1,5.88-.92,8.86a42.18,42.18,0,0,0,1.5,8.75q4.2,18.14,9,36.12t10.21,35.81c1.75,5.77,3.39,11.64,5.87,17.16s5.64,10.74,8.61,16c6.13,10.91,12.31,21.78,18.63,32.57q1.2,2.06,2.41,4.1C354.21,398.07,354.34,398,354.29,397.9Z" style="fill: rgb(38, 50, 56); transform-origin: 324.938px 309.294px;" id="elptdnj8mjpp" class="animable"></path><path d="M260.33,161.92c-1.32,8-10.39,44.3-24.3,53.34-13,8.45-47,15.75-54.67,13.43-3.34-1-7.69-25.79-4.68-28s43-6.59,45.64-7.49,18.1-20.72,26.74-31.16C256.89,152.59,262.14,150.9,260.33,161.92Z" style="fill: rgb(235, 148, 129); transform-origin: 218.178px 191.707px;" id="elhtqhzeac3o" class="animable"></path><path d="M231.1,182.2l20.65,11.93s8.55-19.84,9.62-30.24-1.64-13.32-12-3.28A158.7,158.7,0,0,0,231.1,182.2Z" style="fill: rgb(55, 71, 79); transform-origin: 246.344px 174.271px;" id="elvzx08126vw" class="animable"></path><path d="M240.78,233.07c1,1,63.4-2.3,63.71-2.7.81-1.1-21-66.65-35.59-77.15-3.15-2.26-12.13-.1-14.3,2.08-1.36,1.37-4.33,10-6.26,17.14C244.46,186.72,239.89,232.18,240.78,233.07Z" style="fill: rgb(255, 199, 39); transform-origin: 272.59px 192.759px;" id="el7yd9it4kd4d" class="animable"></path><path d="M278.77,167.11a6.84,6.84,0,0,1-.54-2,.57.57,0,0,1,0-.13c.19.34.39.69.6,1A4.56,4.56,0,0,1,278.77,167.11Z" style="fill: rgb(255, 255, 255); transform-origin: 278.534px 166.045px;" id="eleqxufig5mwg" class="animable"></path><path d="M259.26,211.27a7.11,7.11,0,0,0,0,2,6.84,6.84,0,0,0,.54,1.95,7.18,7.18,0,0,0,0-2A6.77,6.77,0,0,0,259.26,211.27Z" style="fill: rgb(255, 255, 255); transform-origin: 259.53px 213.245px;" id="elha4ktb7s656" class="animable"></path><path d="M276.7,200.26a7.18,7.18,0,0,0,0,2,6.93,6.93,0,0,0,.54,1.95,7.18,7.18,0,0,0,0-2A7.66,7.66,0,0,0,276.7,200.26Z" style="fill: rgb(255, 255, 255); transform-origin: 276.97px 202.235px;" id="elt19f9ecgu3h" class="animable"></path><path d="M277.86,227.14a7.18,7.18,0,0,0,0,2,7.48,7.48,0,0,0,.54,1.94,7.19,7.19,0,0,0,0-2A7.59,7.59,0,0,0,277.86,227.14Z" style="fill: rgb(255, 255, 255); transform-origin: 278.13px 229.11px;" id="elzgacn4ictqb" class="animable"></path><path d="M296.85,215.49a7.18,7.18,0,0,0,0,2,7.48,7.48,0,0,0,.54,1.94,7.77,7.77,0,0,0-.56-4Z" style="fill: rgb(255, 255, 255); transform-origin: 297.115px 217.43px;" id="ele96klnrycfc" class="animable"></path><path d="M255.15,178.82a7.88,7.88,0,0,0,.57,4,7.11,7.11,0,0,0,0-2A6.84,6.84,0,0,0,255.15,178.82Z" style="fill: rgb(255, 255, 255); transform-origin: 255.443px 180.82px;" id="elk1w1mj92048" class="animable"></path><path d="M255.15,158.06a7.88,7.88,0,0,0,.57,4,7.19,7.19,0,0,0,0-2A6.86,6.86,0,0,0,255.15,158.06Z" style="fill: rgb(255, 255, 255); transform-origin: 255.443px 160.06px;" id="elznjxmh5b6jh" class="animable"></path><path d="M287,185.58a7.18,7.18,0,0,0,0,2,6.77,6.77,0,0,0,.54,1.94,7.19,7.19,0,0,0,0-2A7.48,7.48,0,0,0,287,185.58Z" style="fill: rgb(255, 255, 255); transform-origin: 287.27px 187.55px;" id="el1yjc06qr266i" class="animable"></path><path d="M268.82,173.69a7.12,7.12,0,0,0,2,0,6.84,6.84,0,0,0,1.95-.54,7.18,7.18,0,0,0-2,0A7.48,7.48,0,0,0,268.82,173.69Z" style="fill: rgb(255, 255, 255); transform-origin: 270.795px 173.42px;" id="el4arpf1i43k8" class="animable"></path><path d="M260.69,153.64a7.12,7.12,0,0,0,2,0,6.84,6.84,0,0,0,1.95-.54,7.18,7.18,0,0,0-2,0A7.48,7.48,0,0,0,260.69,153.64Z" style="fill: rgb(255, 255, 255); transform-origin: 262.665px 153.37px;" id="eln810zlw5nf" class="animable"></path><path d="M250.47,171.91a6.77,6.77,0,0,1-1.94.54l-.2,0v0c0-.17.09-.34.14-.51A7,7,0,0,1,250.47,171.91Z" style="fill: rgb(255, 255, 255); transform-origin: 249.4px 172.151px;" id="elab4av5z9n" class="animable"></path><path d="M252.47,193a7.18,7.18,0,0,0,2,0,6.77,6.77,0,0,0,1.94-.54,7.11,7.11,0,0,0-2,0A6.84,6.84,0,0,0,252.47,193Z" style="fill: rgb(255, 255, 255); transform-origin: 254.44px 192.73px;" id="eldny47cqos2j" class="animable"></path><path d="M271.7,191.35a7.18,7.18,0,0,0,2,0,6.93,6.93,0,0,0,1.95-.54,6.82,6.82,0,0,0-2,0A6.93,6.93,0,0,0,271.7,191.35Z" style="fill: rgb(255, 255, 255); transform-origin: 273.675px 191.078px;" id="el8ejjnfmaki2" class="animable"></path><path d="M266.83,222.55a7.18,7.18,0,0,0,2,0,6.93,6.93,0,0,0,1.95-.54,7.18,7.18,0,0,0-2,0A7.66,7.66,0,0,0,266.83,222.55Z" style="fill: rgb(255, 255, 255); transform-origin: 268.805px 222.28px;" id="el8rxow2p4fvh" class="animable"></path><path d="M286.23,208.64a7.77,7.77,0,0,0,4-.56,7.18,7.18,0,0,0-2,0A7.48,7.48,0,0,0,286.23,208.64Z" style="fill: rgb(255, 255, 255); transform-origin: 288.23px 208.355px;" id="eluvjsk2kl93i" class="animable"></path><path d="M245.57,230.58a7.18,7.18,0,0,0,2,0,6.77,6.77,0,0,0,1.94-.54,7.19,7.19,0,0,0-2,0A7.48,7.48,0,0,0,245.57,230.58Z" style="fill: rgb(255, 255, 255); transform-origin: 247.54px 230.31px;" id="elme39kxrme6l" class="animable"></path><path d="M244.11,214.21a7.19,7.19,0,0,0,2,0,7.59,7.59,0,0,0,1.94-.54,7.18,7.18,0,0,0-2,0A7.48,7.48,0,0,0,244.11,214.21Z" style="fill: rgb(255, 255, 255); transform-origin: 246.08px 213.94px;" id="eluy98gjrwf2e" class="animable"></path><path d="M269.29,159.73a7.12,7.12,0,0,0-1.41,1.44,7.2,7.2,0,0,0-1,1.76,7.17,7.17,0,0,0,1.41-1.45A7.33,7.33,0,0,0,269.29,159.73Z" style="fill: rgb(255, 255, 255); transform-origin: 268.085px 161.33px;" id="el9h7cqxo0it" class="animable"></path><path d="M247.55,181.33a7.33,7.33,0,0,1-1,1.75,7.22,7.22,0,0,1-.5.6c.05-.34.11-.68.17-1A6.65,6.65,0,0,1,247.55,181.33Z" style="fill: rgb(255, 255, 255); transform-origin: 246.8px 182.505px;" id="elr0ngmkrq6sf" class="animable"></path><path d="M280.89,179a7.16,7.16,0,0,0-1.41,1.45,6.7,6.7,0,0,0-1,1.75,7.12,7.12,0,0,0,1.41-1.44A7.2,7.2,0,0,0,280.89,179Z" style="fill: rgb(255, 255, 255); transform-origin: 279.685px 180.6px;" id="el4duvir9xymv" class="animable"></path><path d="M264.22,197.65a7.39,7.39,0,0,0-1.41,1.44,7.2,7.2,0,0,0-1,1.76,7.71,7.71,0,0,0,2.4-3.2Z" style="fill: rgb(255, 255, 255); transform-origin: 263.015px 199.25px;" id="elh4hcsmkz5ho" class="animable"></path><path d="M254,220.33a7.12,7.12,0,0,0-1.41,1.44,7.2,7.2,0,0,0-1,1.76,7.17,7.17,0,0,0,1.41-1.45A7,7,0,0,0,254,220.33Z" style="fill: rgb(255, 255, 255); transform-origin: 252.795px 221.93px;" id="elexihpit95h4" class="animable"></path><path d="M281.23,214.27a7.17,7.17,0,0,0-1.41,1.45,7.33,7.33,0,0,0-1,1.75,7.12,7.12,0,0,0,1.41-1.44A7.2,7.2,0,0,0,281.23,214.27Z" style="fill: rgb(255, 255, 255); transform-origin: 280.025px 215.87px;" id="elml9wizhwmp" class="animable"></path><path d="M300.78,225.54a7.85,7.85,0,0,0-2.41,3.2,7.11,7.11,0,0,0,1.41-1.44A7.23,7.23,0,0,0,300.78,225.54Z" style="fill: rgb(255, 255, 255); transform-origin: 299.575px 227.14px;" id="elg4gjm92bx5d" class="animable"></path><path d="M245.09,197.47a5.66,5.66,0,0,1-1-.48l.06-.5A6.19,6.19,0,0,1,245.09,197.47Z" style="fill: rgb(255, 255, 255); transform-origin: 244.59px 196.98px;" id="ell6auqbtj5v" class="animable"></path><path d="M288.42,198.2a7.17,7.17,0,0,0-1.45-1.41,7.33,7.33,0,0,0-1.75-1,7.12,7.12,0,0,0,1.44,1.41A7.2,7.2,0,0,0,288.42,198.2Z" style="fill: rgb(255, 255, 255); transform-origin: 286.82px 196.995px;" id="elkzlysa0e2e" class="animable"></path><path d="M290,225.29a7.88,7.88,0,0,0-3.2-2.4,7.71,7.71,0,0,0,3.2,2.4Z" style="fill: rgb(255, 255, 255); transform-origin: 288.4px 224.09px;" id="ellek02bznh7" class="animable"></path><path d="M261.49,171.65a7.39,7.39,0,0,0-1.44-1.41,6.89,6.89,0,0,0-1.76-1,7.12,7.12,0,0,0,1.44,1.41A7.2,7.2,0,0,0,261.49,171.65Z" style="fill: rgb(255, 255, 255); transform-origin: 259.89px 170.445px;" id="elaez5yx6x0hj" class="animable"></path><path d="M270.8,210.76a7.44,7.44,0,0,0-1.45-1.41,7.33,7.33,0,0,0-1.75-1,7.12,7.12,0,0,0,1.44,1.41A7.2,7.2,0,0,0,270.8,210.76Z" style="fill: rgb(255, 255, 255); transform-origin: 269.2px 209.555px;" id="elp0js1bfb74i" class="animable"></path><path d="M242.76,224.73a7.2,7.2,0,0,1-1.61-.89c0-.2,0-.4,0-.6l.12.08A7.12,7.12,0,0,1,242.76,224.73Z" style="fill: rgb(255, 255, 255); transform-origin: 241.955px 223.985px;" id="el7utfk8boipc" class="animable"></path><path d="M267.14,185.24a7.11,7.11,0,0,0-1.44-1.41,6.76,6.76,0,0,0-1.76-1,7.12,7.12,0,0,0,1.44,1.41A7.2,7.2,0,0,0,267.14,185.24Z" style="fill: rgb(255, 255, 255); transform-origin: 265.54px 184.035px;" id="elzm3nkwkp0b" class="animable"></path><path d="M253.22,205.74a7.11,7.11,0,0,0-1.44-1.41,6.92,6.92,0,0,0-1.76-1,6.63,6.63,0,0,0,1.44,1.41A6.92,6.92,0,0,0,253.22,205.74Z" style="fill: rgb(255, 255, 255); transform-origin: 251.62px 204.535px;" id="elj7sr2n95wqa" class="animable"></path><path d="M262.78,230.82a7.12,7.12,0,0,0-1.44-1.41,6.89,6.89,0,0,0-1.76-1,7.44,7.44,0,0,0,1.45,1.41A7.33,7.33,0,0,0,262.78,230.82Z" style="fill: rgb(255, 255, 255); transform-origin: 261.18px 229.615px;" id="elpkdu3o9913h" class="animable"></path><path d="M255.88,152.5c-2.47,1.83-4.37,11.32,1.29,12.61s10.9-7.65,11.68-10.54S261.23,148.53,255.88,152.5Z" style="fill: rgb(55, 71, 79); transform-origin: 261.186px 157.933px;" id="elt12a6sli4xa" class="animable"></path><path d="M257.58,163.81c3.51.45,8.83-5.4,10.71-9.88.13-.31-.64-3.33-1.4-7-.45-2.25-.9-4.77-1.14-7.1l-14.24,5.08a37.23,37.23,0,0,1,2.35,8.8,5.13,5.13,0,0,1,0,1c0,.05,0,.1,0,.16C253.75,156.64,254.19,163.37,257.58,163.81Z" style="fill: rgb(235, 148, 129); transform-origin: 259.907px 151.832px;" id="el0nuhr9ase63r" class="animable"></path><path d="M265.07,140c-.15,3-1.27,13.61-9.71,14.69a11.45,11.45,0,0,1-1.5.08,1,1,0,0,1,0-.17,5.13,5.13,0,0,0,0-1,37.39,37.39,0,0,0-2.35-8.8Z" style="fill: rgb(38, 50, 56); transform-origin: 258.29px 147.385px;" id="eloaytfziypz" class="animable"></path><path d="M264.81,123c2.24,5,1.43,20.24-1.82,24-4.7,5.51-13.36,7.09-18.28,1.21-4.77-5.7-3.36-25.58.35-29.13C250.54,113.92,261.51,115.7,264.81,123Z" style="fill: rgb(235, 148, 129); transform-origin: 253.874px 134.032px;" id="elhuccaqmnd2r" class="animable"></path><path d="M263.35,146.88h0" style="fill: none; stroke: rgb(244, 166, 157); stroke-linecap: round; stroke-linejoin: round; stroke-width: 0px; transform-origin: 263.35px 146.88px;" id="el8hw4in1g2c7" class="animable"></path><path d="M252.87,134s.07.06.07.1c-.08,1,0,2.22.91,2.6,0,0,0,.07,0,.06C252.71,136.54,252.62,135,252.87,134Z" style="fill: rgb(38, 50, 56); transform-origin: 253.303px 135.38px;" id="elkik2xp7mmzs" class="animable"></path><path d="M253.84,133c1.66,0,1.63,3.28.09,3.33S252.45,133,253.84,133Z" style="fill: rgb(38, 50, 56); transform-origin: 253.936px 134.665px;" id="eldhzb5t5txq8" class="animable"></path><path d="M246.94,134s-.08.05-.08.09c0,1-.12,2.22-1.06,2.55a0,0,0,0,0,0,.06C247,136.52,247.13,134.94,246.94,134Z" style="fill: rgb(38, 50, 56); transform-origin: 246.406px 135.35px;" id="ell8l5w0p3ro" class="animable"></path><path d="M246,132.89c-1.66-.14-1.82,3.18-.28,3.31S247.42,133,246,132.89Z" style="fill: rgb(38, 50, 56); transform-origin: 245.815px 134.545px;" id="el9h6t194w91" class="animable"></path><path d="M255.16,131.46c-.45-.12-.85-.31-1.28-.47a2.21,2.21,0,0,1-1.22-.72.71.71,0,0,1,.12-.85,1.76,1.76,0,0,1,1.76-.17,2.62,2.62,0,0,1,1.47,1.12A.76.76,0,0,1,255.16,131.46Z" style="fill: rgb(38, 50, 56); transform-origin: 254.333px 130.285px;" id="el1beduw6cdsk" class="animable"></path><path d="M244.76,131.2a11.58,11.58,0,0,0,1.32-.33,2.17,2.17,0,0,0,1.29-.59.71.71,0,0,0,0-.86,1.75,1.75,0,0,0-1.73-.35,2.59,2.59,0,0,0-1.58,1A.75.75,0,0,0,244.76,131.2Z" style="fill: rgb(38, 50, 56); transform-origin: 245.735px 130.089px;" id="elndnw9o3uqt" class="animable"></path><path d="M253.81,143.58c-.25.24-.5.57-.87.6a2.71,2.71,0,0,1-1.11-.27,0,0,0,0,0,0,.05,1.37,1.37,0,0,0,1.3.57,1.09,1.09,0,0,0,.82-.9C253.93,143.57,253.85,143.55,253.81,143.58Z" style="fill: rgb(38, 50, 56); transform-origin: 252.89px 144.054px;" id="eldlno3wlce3w" class="animable"></path><path d="M252.76,140.49A3.52,3.52,0,0,1,250.4,142a4.43,4.43,0,0,1-1.26,0,.93.93,0,0,1-.24,0l-.23,0a.26.26,0,0,1-.2-.24h0a.41.41,0,0,1,0-.11h0v-.09c0-.79.08-2,.08-2-.29.15-1.78.8-1.75.38a53,53,0,0,1,1.46-10.6c0-.11.2-.08.19,0-.1,3.3-.78,6.57-.93,9.88a6.39,6.39,0,0,1,1.66-.48c.11,0-.21,2.32-.18,2.68a.1.1,0,0,0,0,0,4.85,4.85,0,0,0,3.64-1.1C252.74,140.34,252.82,140.41,252.76,140.49Z" style="fill: rgb(38, 50, 56); transform-origin: 249.79px 135.657px;" id="el4f6t279j3pr" class="animable"></path><path d="M249.72,141.86a4.11,4.11,0,0,0,1.75,1.14,1.82,1.82,0,0,0,1.13,0c.8-.27.76-1,.56-1.65a4.54,4.54,0,0,0-.44-1A5.35,5.35,0,0,1,249.72,141.86Z" style="fill: rgb(38, 50, 56); transform-origin: 251.501px 141.72px;" id="elnkwr1lqxure" class="animable"></path><path d="M251.47,143a1.82,1.82,0,0,0,1.13,0c.8-.27.76-1,.56-1.65A1.92,1.92,0,0,0,251.47,143Z" style="fill: rgb(243, 146, 185); transform-origin: 252.376px 142.22px;" id="el2fzjcgbpgfs" class="animable"></path><path d="M242.59,125.18s0,0,0-.05l0,.07Z" style="fill: rgb(38, 50, 56); transform-origin: 242.59px 125.165px;" id="elw15wh8ofov" class="animable"></path><path d="M265,136.3c-3.85-.2-4.28-7.24-4.28-7.24s-6.57-1.39-7.31-6.42c0,0-6.47,3.72-11.33,1.7s-3.57-7.57-3-8.74,3.24,1.18,3.24,1.18.46-3.15,1.32-3.43,1.69,1.67,1.69,1.67a41.22,41.22,0,0,1,12.24-1.41C263.37,114,266,120,266,120s3.06.8,4,3S267.45,136.42,265,136.3Z" style="fill: rgb(38, 50, 56); transform-origin: 254.323px 124.812px;" id="elddl0vp98e4" class="animable"></path><path d="M253.53,121.68a8.29,8.29,0,0,0,.46,3,5.51,5.51,0,0,0,1.72,2.36,8.31,8.31,0,0,0,2.7,1.24c.48.11,1,.19,1.49.28s1,.08,1.53.15c-.51.05-1,.06-1.55.09s-1-.07-1.56-.15a6.92,6.92,0,0,1-2.91-1.22,5.24,5.24,0,0,1-1.78-2.63A6.31,6.31,0,0,1,253.53,121.68Z" style="fill: rgb(38, 50, 56); transform-origin: 257.405px 125.243px;" id="elc958thxu4dr" class="animable"></path><path d="M266,120.79a9.62,9.62,0,0,0-2.07-4.45,7.6,7.6,0,0,0-4.12-2.46,9.44,9.44,0,0,0-1.2-.24l-1.23-.08c-.82,0-1.64.1-2.47.16s-1.64.26-2.45.47-1.61.44-2.43.64c.78-.31,1.57-.58,2.36-.88s1.64-.41,2.46-.61a13,13,0,0,1,5.08,0,7.78,7.78,0,0,1,4.29,2.71A8.49,8.49,0,0,1,266,120.79Z" style="fill: rgb(38, 50, 56); transform-origin: 258.015px 116.94px;" id="eldupb928ktnt" class="animable"></path><path d="M262.16,135.24S265,130,267.35,131s.54,8.26-1.93,9.5a2.65,2.65,0,0,1-3.67-1Z" style="fill: rgb(235, 148, 129); transform-origin: 265.097px 135.871px;" id="elelbwyefxoir" class="animable"></path><path d="M266.79,133.08s0,0,0,.07c-1.73.92-2.5,2.7-3,4.51A1.45,1.45,0,0,1,266,137a.05.05,0,0,1,0,.1,1.62,1.62,0,0,0-1.71.76,7.71,7.71,0,0,0-.69,1.52c-.07.17-.37.12-.33-.07v-.05C262.89,137,264.34,133.58,266.79,133.08Z" style="fill: rgb(38, 50, 56); transform-origin: 265px 136.282px;" id="elpt1syich92" class="animable"></path><g id="el413z2lem38u"><rect x="180.93" y="173.34" width="148.84" height="98.56" style="fill: rgb(255, 255, 255); transform-origin: 255.35px 222.62px; transform: rotate(-9.65deg);" class="animable"></rect></g><path d="M190,284l0-.25-16.57-97.4.25-.05,147-25,16.6,97.65L337,259Zm-16-97.25,16.44,96.67,146.24-24.86-16.44-96.67Z" style="fill: rgb(219, 219, 219); transform-origin: 255.355px 222.65px;" id="eljqpdhko8vn" class="animable"></path><path d="M272,219.78A16.9,16.9,0,1,1,252.52,206,16.9,16.9,0,0,1,272,219.78Z" style="fill: rgb(255, 199, 39); transform-origin: 255.348px 222.662px;" id="elh9badhs9wrq" class="animable"></path><polygon points="249.52 230.85 247.12 216.77 265.93 220.82 249.52 230.85" style="fill: rgb(255, 255, 255); transform-origin: 256.525px 223.81px;" id="elgfe6cwvad7" class="animable"></polygon><g id="elmcc38ejhhp"><rect x="188.54" y="263.55" width="148.84" height="7.7" style="fill: rgb(235, 235, 235); transform-origin: 262.96px 267.4px; transform: rotate(-9.65deg);" class="animable"></rect></g><g id="elmbhq6fmj8b"><rect x="197.6" y="266.72" width="125.28" height="2.28" style="fill: rgb(199, 199, 199); transform-origin: 260.24px 267.86px; transform: rotate(-9.65deg);" class="animable"></rect></g><g id="el802h4evcrd5"><rect x="190.9" y="276.81" width="4.87" height="4.87" style="fill: rgb(199, 199, 199); transform-origin: 193.335px 279.245px; transform: rotate(-9.65deg);" class="animable"></rect></g><g id="el1rh3x0hg14j"><rect x="192.05" y="277.82" width="0.92" height="3.13" style="fill: rgb(166, 166, 166); transform-origin: 192.51px 279.385px; transform: rotate(-9.65deg);" class="animable"></rect></g><g id="elykduwjpxg9"><rect x="193.69" y="277.54" width="0.92" height="3.13" style="fill: rgb(166, 166, 166); transform-origin: 194.15px 279.105px; transform: rotate(-9.65deg);" class="animable"></rect></g><g id="el6a77lz9o7lk"><rect x="323.92" y="254.19" width="4.87" height="4.87" style="fill: rgb(199, 199, 199); transform-origin: 326.355px 256.625px; transform: rotate(-9.65deg);" class="animable"></rect></g><g id="elz94pcom91np"><rect x="324.67" y="256.24" width="0.95" height="1.18" style="fill: rgb(166, 166, 166); transform-origin: 325.145px 256.83px; transform: rotate(-9.65deg);" class="animable"></rect></g><polygon points="326.89 257.9 325.35 257.39 325.15 256.23 326.44 255.24 326.89 257.9" style="fill: rgb(166, 166, 166); transform-origin: 326.02px 256.57px;" id="elwwb5sf8odjb" class="animable"></polygon><g id="freepik--u5Zjqx--inject-5" class="animable" style="transform-origin: 327.448px 256.415px;"><path d="M327.21,255.57l.18-.26a1.6,1.6,0,0,1,.38,2.21l-.26-.18a1.25,1.25,0,0,0,.22-.95A1.23,1.23,0,0,0,327.21,255.57Z" style="fill: rgb(166, 166, 166); transform-origin: 327.633px 256.415px;" id="eljlqtq5oyo4a" class="animable"></path><path d="M327.26,257.16,327,257a.66.66,0,0,0,.11-.49.65.65,0,0,0-.27-.42l.18-.25A1,1,0,0,1,327.26,257.16Z" style="fill: rgb(166, 166, 166); transform-origin: 327.125px 256.5px;" id="elkf2vh6rri1l" class="animable"></path></g><g id="elmdojzqirozp"><rect x="329.64" y="253.22" width="4.87" height="4.87" style="fill: rgb(199, 199, 199); transform-origin: 332.075px 255.655px; transform: rotate(-9.65deg);" class="animable"></rect></g><g id="el7nbcha8yo1r"><rect x="330.32" y="254.12" width="2.01" height="2.01" style="fill: rgb(166, 166, 166); transform-origin: 331.325px 255.125px; transform: rotate(-9.65deg);" class="animable"></rect></g><g id="elq55yca793yp"><rect x="331.87" y="255.26" width="2.01" height="2.01" style="fill: rgb(255, 255, 255); transform-origin: 332.875px 256.265px; transform: rotate(-9.74364deg);" class="animable"></rect></g><path d="M221.63,274.43a2.44,2.44,0,0,0,.45,1.08l-23.4,4-.38-2.26,23.4-4A2.55,2.55,0,0,0,221.63,274.43Z" style="fill: rgb(166, 166, 166); transform-origin: 210.19px 276.38px;" id="el0d5n53s1q05" class="animable"></path><path d="M226.76,273.56a2.56,2.56,0,0,1-.06,1.17,2.61,2.61,0,0,1-2.07,1.83,2.58,2.58,0,0,1-2.55-1.05,2.44,2.44,0,0,1-.45-1.08,2.61,2.61,0,0,1,2.12-3,2.59,2.59,0,0,1,3,2.13Z" style="fill: rgb(166, 166, 166); transform-origin: 224.198px 273.995px;" id="els1r52zedjoj" class="animable"></path><path d="M280,158.37c7,4.1,37.64,23.15,41.33,39.32,3.45,15.14-9.86,38.19-13.34,45.42-1.51,3.16-23.06-5.67-24.11-9.26s11.94-28.1,12-30.89S280.93,179.57,273,168.6C265.46,158.23,266.89,150.71,280,158.37Z" style="fill: rgb(235, 148, 129); transform-origin: 295.163px 199.508px;" id="elo5nootx61j" class="animable"></path><path d="M276.75,254.28c-2.1,3.84-8,7.16-5.76,9.49,2,2.07,5.91-.63,5.91-.63s-3.4,4.46-.58,6.07,6.46-2.21,6.46-2.21-3,3.58-.07,5,6.62-1.28,6.62-1.28-.15,1.61,2.36,1.68c3.59.09,8.54-5.88,10.39-9.61s5.86-18.78,6.43-21.09l-23.87-12.07s-6.35,5.12-9.25,8.11-9.73,15.5-6.74,17.41,7.66-7,9.28-8.95,2.34-1.88,2.29-.44C280.19,246.69,277.67,252.58,276.75,254.28Z" style="fill: rgb(235, 148, 129); transform-origin: 288.209px 251.021px;" id="elvzkmzzmrfh" class="animable"></path><path d="M277,262.93c5.14-4.15,6.68-6.85,8.79-13,0-.12.22-.09.19,0-1.51,6.22-2.95,9.89-8.8,13.23C276.92,263.35,276.77,263.12,277,262.93Z" style="fill: rgb(38, 50, 56); transform-origin: 281.435px 256.541px;" id="elyc82rrw0g6" class="animable"></path><path d="M282.52,267.12c5-4.77,6.66-7.69,9.34-14,0-.08.19,0,.16.06-2.11,6.39-3.63,10-9.22,14.13C282.55,267.52,282.29,267.34,282.52,267.12Z" style="fill: rgb(38, 50, 56); transform-origin: 287.227px 260.245px;" id="ellwgxftk6cgh" class="animable"></path><path d="M289.34,270.62c4.48-5,6.47-8.09,8.29-14.53a.12.12,0,0,1,.24.06c-1.21,6.74-3.67,10.65-8.36,14.59C289.19,271,289.06,270.93,289.34,270.62Z" style="fill: rgb(38, 50, 56); transform-origin: 293.53px 263.448px;" id="el0h666nunc83n" class="animable"></path><path d="M287.56,191l17-16.69s-16.81-13.57-26.54-17.4-13.27-2-6.39,10.7A159.47,159.47,0,0,0,287.56,191Z" style="fill: rgb(55, 71, 79); transform-origin: 286.307px 173.066px;" id="el31jzumnzb5g" class="animable"></path><path d="M173.15,194.87c-1.58,4.65-6.2,10.75-6.21,14.4a4.2,4.2,0,0,0,2.83,4.13s-3.38,2.21-2.84,5.53c.27,1.7,3.24,2.76,3.24,2.76s-2.63,1.89-2,4.81c.53,2.33,3.43,3,3.43,3s-1.68,3-.39,5.19c2.63,4.46,23,2.06,25.22-5.8,1-3.66-3.88-2.81-3.88-2.81s6.8-2.94,6.41-7.14-6.73-2.71-6.73-2.71,6.57-2.91,5.72-7.23c-.87-4.49-7-1.91-7-1.91s4.16-3.6,2.76-6.76c-2.31-5.21-12.68,3.33-17.28,2.8L175.16,195Z" style="fill: rgb(235, 148, 129); transform-origin: 182.924px 215.893px;" id="eltj1fmpzunp" class="animable"></path><path d="M169.54,202.29c.8-4.61-6.65-9.78-6.51-14.29.18-6.1,10.45-1.4,12.18,7l1.29,8.14Z" style="fill: rgb(235, 148, 129); transform-origin: 169.764px 194.184px;" id="els9h8hjs63cq" class="animable"></path><path d="M172.07,229.72c-.07,0-.08.1,0,.1a35.49,35.49,0,0,0,20.8-3.71c.2-.11.1-.49-.14-.41A72.78,72.78,0,0,1,172.07,229.72Z" style="fill: rgb(38, 50, 56); transform-origin: 182.495px 227.895px;" id="elp45r64khy2f" class="animable"></path><path d="M170.08,221.74a.08.08,0,0,0,0,.15c7.09.83,15.86-.75,22.43-5.47.23-.16.27-.53,0-.36C187.91,218.86,176.69,221.53,170.08,221.74Z" style="fill: rgb(38, 50, 56); transform-origin: 181.363px 219.059px;" id="el5kg09opaja" class="animable"></path><path d="M191.39,206.64c-6.48,4.28-13.68,6.05-21.33,6.8-.1,0-.08.15,0,.17,3.84.65,8.67-.34,12.37-1.43a20.53,20.53,0,0,0,9.1-5.32C191.64,206.76,191.53,206.54,191.39,206.64Z" style="fill: rgb(38, 50, 56); transform-origin: 180.784px 210.216px;" id="elyli2ulda5a" class="animable"></path></g><g id="freepik--Plant--inject-5" class="animable animator-hidden" style="transform-origin: 406.48px 392.945px;"><path d="M434.22,366.5c-11.2,15.17-22.88,32.78-25.73,51.81,0,.28.43.38.5.09a112.82,112.82,0,0,1,4.95-15.23c7.36-2,14.59-3.69,18.46-11,4-7.52,3.45-17.32,2.7-25.5C435,366.23,434.45,366.21,434.22,366.5Z" style="fill: rgb(255, 199, 39); transform-origin: 422.06px 392.441px;" id="elypr81doksbs" class="animable"></path><path d="M414.05,403c5-11.3,11.49-22.64,19.71-31.92.05-.07.14,0,.09.09-5.38,6.61-9.47,13.81-13.46,21.14,3.71-3.76,7.78-7.14,11.29-11.13.07-.08.18,0,.12.11-3.49,4.19-7.3,8.74-11.85,11.84q-1.83,3.38-3.69,6.76c.3-.17.62-.33.93-.48.05,0,.1.05.05.08-.35.18-.69.36-1.05.51-.59,1.07-1.17,2.14-1.78,3.21C414.27,403.47,413.94,403.26,414.05,403Z" style="fill: rgb(38, 50, 56); transform-origin: 423.946px 387.19px;" id="el5jykio33huv" class="animable"></path><path d="M417.79,399.09a66.4,66.4,0,0,0,8.6-5.75c.08,0,.18.05.11.11a45.15,45.15,0,0,1-8.58,5.85C417.78,399.37,417.66,399.16,417.79,399.09Z" style="fill: rgb(38, 50, 56); transform-origin: 422.129px 396.327px;" id="elwseeo2laa5p" class="animable"></path><path d="M407.2,415.48c0,.23.41.22.4,0,.06-6.27,0-12.56.1-18.86,1.61-3.23,5.06-5,7.45-7.62a33.23,33.23,0,0,0,4.47-6.23,44.6,44.6,0,0,0,5.18-17.28c.67-6.7-1.88-28.82-4.7-28.05-1.47.4-6.21,11.35-7.47,15a104.38,104.38,0,0,0-4.46,18.36C405.88,385.5,406.07,400.64,407.2,415.48Z" style="fill: rgb(255, 199, 39); transform-origin: 415.647px 376.535px;" id="elf6fknyjg7d" class="animable"></path><path d="M407.15,388.45l0,0c.34-7.92,2.13-15.93,3.8-23.62,1.8-8.28,3.91-16.08,8.17-23.47a.12.12,0,0,1,.21.12,87.49,87.49,0,0,0-6.56,18c.28-.45.63-.87.93-1.29.11-.17.39,0,.27.16a11.21,11.21,0,0,1-1.33,1.88.06.06,0,0,1-.05,0c-1.47,5.92-2.52,12-3.43,18,.07-.07.14-.16.2-.23a.06.06,0,0,1,.1.07c-.11.2-.24.4-.36.6-.46,3.07-.88,6.13-1.3,9.16,5.46-4.67,10.12-10.17,12.75-16.95,0,0,.07,0,.05,0-2.57,7-6.64,13.28-12.89,17.54-.11.82-.23,1.64-.34,2.45,0,.17-.3.13-.3,0,0-.72,0-1.44.07-2.17A.17.17,0,0,1,407.15,388.45Z" style="fill: rgb(38, 50, 56); transform-origin: 413.837px 366.141px;" id="elorata18wati" class="animable"></path><path d="M409.72,377a126.14,126.14,0,0,0,11.13-19.16c0-.07.16,0,.13.06-2.57,6.84-6.17,13.77-11.05,19.26A.13.13,0,0,1,409.72,377Z" style="fill: rgb(38, 50, 56); transform-origin: 415.338px 367.511px;" id="eltqgxjkgzp6" class="animable"></path><path d="M415.27,356.26c1.73-3.05,3.55-6,5.18-9.15,0-.09.16,0,.12.08a47.23,47.23,0,0,1-5,9.23A.15.15,0,0,1,415.27,356.26Z" style="fill: rgb(38, 50, 56); transform-origin: 417.913px 351.791px;" id="el7jx9jork0rp" class="animable"></path><path d="M414.59,357.59a0,0,0,0,1,0,.06S414.56,357.59,414.59,357.59Z" style="fill: rgb(38, 50, 56); transform-origin: 414.583px 357.62px;" id="elqi4zynqb8va" class="animable"></path><path d="M403,397.36a63.13,63.13,0,0,1-1.46,12.34c.06.45.13.89.19,1.35a58.37,58.37,0,0,0,2.21-13.76.42.42,0,0,0,0-.42v0a91.15,91.15,0,0,0-1.38-18.64c-1.94-11.51-6.18-22.57-14.21-31.2a.58.58,0,0,0-.89.19c-3.24,8.24-2.11,18.07.65,26.29A48.14,48.14,0,0,0,394.45,386C397.2,389.85,400.72,393.13,403,397.36Z" style="fill: rgb(255, 199, 39); transform-origin: 394.741px 378.973px;" id="el69opf5wtyw" class="animable"></path><path d="M389.27,350.87c7.61,12.35,12.9,27,13.55,41.59,0,.26-.42.33-.46.06-.18-1.31-.38-2.61-.59-3.9h0c-3.15-3-6.38-6.2-8.64-10,0-.07.06-.15.11-.09a105.16,105.16,0,0,0,8.39,9.13c-.55-3.22-1.19-6.4-2-9.53l-.6-.71c-.13-.15.09-.38.23-.22l.18.2a109.46,109.46,0,0,0-4-12.63c-1.94-2.31-4.1-4.31-5.51-7.1,0-.06,0-.12.1-.05,1.13,1.59,2.23,3.19,3.52,4.67.51.59,1.07,1.14,1.6,1.71A96.43,96.43,0,0,0,389,351,.17.17,0,0,1,389.27,350.87Z" style="fill: rgb(38, 50, 56); transform-origin: 395.91px 371.765px;" id="elscbopgoik5l" class="animable"></path><path d="M390.81,366.11c2.46,3.31,5.26,6.47,7.55,9.89a.1.1,0,0,1-.16.12,50.43,50.43,0,0,1-7.56-9.92C390.57,366.1,390.73,366,390.81,366.11Z" style="fill: rgb(38, 50, 56); transform-origin: 394.501px 371.111px;" id="eldl1zrqhxdz" class="animable"></path><path d="M398.7,376.77l.11.1a.08.08,0,0,1-.12.11l-.1-.1C398.52,376.81,398.63,376.69,398.7,376.77Z" style="fill: rgb(38, 50, 56); transform-origin: 398.699px 376.875px;" id="elq3l1twhj87r" class="animable"></path><path d="M377.34,374.62a38,38,0,0,0,8,18.84,20.08,20.08,0,0,0,6.52,5.08c2.82,1.4,5.77,3,8.69,4.15a57.38,57.38,0,0,1,3.08,10.93c.09-.32.18-.65.28-1-1.87-16.09-12.29-29.84-25.6-38.67A.65.65,0,0,0,377.34,374.62Z" style="fill: rgb(255, 199, 39); transform-origin: 390.62px 393.74px;" id="elc6e3is23cy5" class="animable"></path><path d="M381.94,379.37c-.09-.08,0-.25.14-.18a54.49,54.49,0,0,1,17,20.92c.1.22-.21.41-.33.19-.62-1.08-1.25-2.14-1.89-3.17h0c-3-.58-5.92-2.72-8.18-4.75-.06-.05,0-.14.09-.09a18.82,18.82,0,0,0,3.85,2.71c1.24.62,2.57,1,3.86,1.53q-1.69-2.68-3.52-5.17a35.3,35.3,0,0,1-9.14-5.14.08.08,0,1,1,.09-.14,92.38,92.38,0,0,0,8.49,4.54,74.8,74.8,0,0,0-6-7c-1-.55-2.08-1.1-3.08-1.68-.08-.05,0-.19.06-.16a11.34,11.34,0,0,1,2.37,1.17C384.51,381.74,383.27,380.54,381.94,379.37Z" style="fill: rgb(38, 50, 56); transform-origin: 390.502px 389.786px;" id="elour4d042zrp" class="animable"></path><path d="M382.23,384.93a3.61,3.61,0,0,1,.51.36c.05,0,0,.11-.06.08a2.86,2.86,0,0,1-.54-.3A.08.08,0,1,1,382.23,384.93Z" style="fill: rgb(38, 50, 56); transform-origin: 382.431px 385.146px;" id="elz871do69o4" class="animable"></path><polygon points="424.72 448.47 388.23 448.47 391.18 415.23 391.82 407.9 421.13 407.9 421.78 415.23 424.72 448.47" style="fill: rgb(69, 90, 100); transform-origin: 406.475px 428.185px;" id="eltaoad9mmkvd" class="animable"></polygon><polygon points="421.78 415.23 391.18 415.23 391.82 407.9 421.13 407.9 421.78 415.23" style="fill: rgb(38, 50, 56); transform-origin: 406.48px 411.565px;" id="elk4un9jxj0cr" class="animable"></polygon><rect x="390.08" y="402.78" width="32.8" height="7.25" style="fill: rgb(69, 90, 100); transform-origin: 406.48px 406.405px;" id="el179bi1uq4ns" class="animable"></rect></g><defs>     <filter id="active" height="200%">         <feMorphology in="SourceAlpha" result="DILATED" operator="dilate" radius="2"></feMorphology>                <feFlood flood-color="#32DFEC" flood-opacity="1" result="PINK"></feFlood>        <feComposite in="PINK" in2="DILATED" operator="in" result="OUTLINE"></feComposite>        <feMerge>            <feMergeNode in="OUTLINE"></feMergeNode>            <feMergeNode in="SourceGraphic"></feMergeNode>        </feMerge>    </filter>    <filter id="hover" height="200%">        <feMorphology in="SourceAlpha" result="DILATED" operator="dilate" radius="2"></feMorphology>                <feFlood flood-color="#ff0000" flood-opacity="0.5" result="PINK"></feFlood>        <feComposite in="PINK" in2="DILATED" operator="in" result="OUTLINE"></feComposite>        <feMerge>            <feMergeNode in="OUTLINE"></feMergeNode>            <feMergeNode in="SourceGraphic"></feMergeNode>        </feMerge>            <feColorMatrix type="matrix" values="0   0   0   0   0                0   1   0   0   0                0   0   0   0   0                0   0   0   1   0 "></feColorMatrix>    </filter></defs></svg>